<svg xmlns="http://www.w3.org/2000/svg" xmlns:xlink="http://www.w3.org/1999/xlink" width="244" zoomAndPan="magnify" viewBox="0 0 183 181.5" height="242" preserveAspectRatio="xMidYMid meet" version="1.0"><defs><clipPath id="132a5c461c"><path d="M 0.25 0 L 182.746094 0 L 182.746094 181 L 0.25 181 Z M 0.25 0 " clip-rule="nonzero"/></clipPath><clipPath id="5133014e67"><path d="M 88 142 L 111 142 L 111 178.5625 L 88 178.5625 Z M 88 142 " clip-rule="nonzero"/></clipPath><clipPath id="1327c6925c"><path d="M 88 2.796875 L 111 2.796875 L 111 28 L 88 28 Z M 88 2.796875 " clip-rule="nonzero"/></clipPath><clipPath id="52f2382c61"><path d="M 3.796875 22 L 179.5625 22 L 179.5625 77 L 3.796875 77 Z M 3.796875 22 " clip-rule="nonzero"/></clipPath></defs><g clip-path="url(#132a5c461c)"><path fill="#ffffff" d="M 0.25 0 L 182.75 0 L 182.75 181 L 0.25 181 Z M 0.25 0 " fill-opacity="1" fill-rule="nonzero"/><path fill="#ffffff" d="M 0.25 0 L 182.75 0 L 182.75 181 L 0.25 181 Z M 0.25 0 " fill-opacity="1" fill-rule="nonzero"/></g><path fill="#000000" d="M 91.679688 104.414062 C 90.164062 104.414062 88.933594 103.183594 88.933594 101.667969 L 88.933594 76.949219 C 88.933594 75.433594 90.164062 74.203125 91.679688 74.203125 C 93.195312 74.203125 94.425781 75.433594 94.425781 76.949219 L 94.425781 101.667969 C 94.425781 103.183594 93.195312 104.414062 91.679688 104.414062 Z M 91.679688 104.414062 " fill-opacity="1" fill-rule="nonzero"/><g clip-path="url(#5133014e67)"><path fill="#000000" d="M 108.15625 178.5625 L 91.679688 178.5625 C 90.164062 178.5625 88.933594 177.332031 88.933594 175.816406 L 88.933594 145.609375 C 88.933594 144.089844 90.164062 142.859375 91.679688 142.859375 C 93.195312 142.859375 94.425781 144.089844 94.425781 145.609375 L 94.425781 173.070312 L 105.410156 173.070312 L 105.410156 145.609375 C 105.410156 144.089844 106.640625 142.859375 108.15625 142.859375 C 109.675781 142.859375 110.90625 144.089844 110.90625 145.609375 L 110.90625 175.816406 C 110.90625 177.332031 109.675781 178.5625 108.15625 178.5625 Z M 108.15625 178.5625 " fill-opacity="1" fill-rule="nonzero"/></g><path fill="#000000" d="M 108.15625 109.90625 C 106.640625 109.90625 105.410156 108.675781 105.410156 107.160156 L 105.410156 76.949219 C 105.410156 75.433594 106.640625 74.203125 108.15625 74.203125 C 109.675781 74.203125 110.90625 75.433594 110.90625 76.949219 L 110.90625 107.160156 C 110.90625 108.675781 109.675781 109.90625 108.15625 109.90625 Z M 108.15625 109.90625 " fill-opacity="1" fill-rule="nonzero"/><g clip-path="url(#1327c6925c)"><path fill="#000000" d="M 108.15625 27.515625 C 106.640625 27.515625 105.410156 26.285156 105.410156 24.769531 L 105.410156 11.035156 C 105.410156 9.523438 104.179688 8.289062 102.664062 8.289062 L 97.171875 8.289062 C 95.660156 8.289062 94.425781 9.523438 94.425781 11.035156 L 94.425781 24.769531 C 94.425781 26.285156 93.195312 27.515625 91.679688 27.515625 C 90.164062 27.515625 88.933594 26.285156 88.933594 24.769531 L 88.933594 11.035156 C 88.933594 6.496094 92.628906 2.796875 97.171875 2.796875 L 102.664062 2.796875 C 107.207031 2.796875 110.90625 6.496094 110.90625 11.035156 L 110.90625 24.769531 C 110.90625 26.285156 109.675781 27.515625 108.15625 27.515625 Z M 108.15625 27.515625 " fill-opacity="1" fill-rule="nonzero"/></g><g clip-path="url(#52f2382c61)"><path fill="#000000" d="M 171.324219 76.949219 L 12.035156 76.949219 C 7.492188 76.949219 3.796875 73.253906 3.796875 68.710938 L 3.796875 30.261719 C 3.796875 25.71875 7.492188 22.023438 12.035156 22.023438 L 171.324219 22.023438 C 175.867188 22.023438 179.5625 25.71875 179.5625 30.261719 L 179.5625 68.710938 C 179.5625 73.253906 175.867188 76.949219 171.324219 76.949219 Z M 12.035156 27.515625 C 10.523438 27.515625 9.289062 28.746094 9.289062 30.261719 L 9.289062 68.710938 C 9.289062 70.222656 10.523438 71.457031 12.035156 71.457031 L 171.324219 71.457031 C 172.835938 71.457031 174.070312 70.222656 174.070312 68.710938 L 174.070312 30.261719 C 174.070312 28.746094 172.835938 27.515625 171.324219 27.515625 Z M 12.035156 27.515625 " fill-opacity="1" fill-rule="nonzero"/></g><path fill="#000000" d="M 132.875 65.964844 C 132.074219 65.964844 131.296875 65.613281 130.765625 64.976562 L 121.890625 54.324219 L 121.890625 63.21875 C 121.890625 64.734375 120.660156 65.964844 119.144531 65.964844 C 117.628906 65.964844 116.398438 64.734375 116.398438 63.21875 L 116.398438 46.738281 C 116.398438 45.582031 117.121094 44.550781 118.210938 44.15625 C 119.292969 43.765625 120.511719 44.09375 121.253906 44.980469 L 130.128906 55.632812 L 130.128906 46.738281 C 130.128906 45.222656 131.359375 43.992188 132.875 43.992188 C 134.390625 43.992188 135.621094 45.222656 135.621094 46.738281 L 135.621094 63.21875 C 135.621094 64.375 134.894531 65.40625 133.808594 65.800781 C 133.503906 65.910156 133.1875 65.964844 132.875 65.964844 Z M 132.875 65.964844 " fill-opacity="1" fill-rule="nonzero"/><path fill="#000000" d="M 108.15625 65.964844 C 106.640625 65.964844 105.410156 64.734375 105.410156 63.21875 L 105.410156 46.738281 C 105.410156 45.222656 106.640625 43.992188 108.15625 43.992188 C 109.675781 43.992188 110.90625 45.222656 110.90625 46.738281 L 110.90625 63.21875 C 110.90625 64.734375 109.675781 65.964844 108.15625 65.964844 Z M 108.15625 65.964844 " fill-opacity="1" fill-rule="nonzero"/><path fill="#000000" d="M 152.097656 65.964844 C 146.042969 65.964844 141.113281 61.035156 141.113281 54.976562 C 141.113281 48.917969 146.042969 43.992188 152.097656 43.992188 L 154.847656 43.992188 C 156.363281 43.992188 157.59375 45.222656 157.59375 46.738281 C 157.59375 48.253906 156.363281 49.484375 154.847656 49.484375 L 152.097656 49.484375 C 149.070312 49.484375 146.605469 51.949219 146.605469 54.976562 C 146.605469 58.007812 149.070312 60.472656 152.097656 60.472656 C 154.164062 60.472656 155.964844 59.324219 156.90625 57.636719 C 155.722656 57.332031 154.847656 56.257812 154.847656 54.976562 C 154.847656 53.460938 156.078125 52.230469 157.59375 52.230469 L 160.339844 52.230469 C 161.855469 52.230469 163.085938 53.460938 163.085938 54.976562 C 163.085938 61.035156 158.15625 65.964844 152.097656 65.964844 Z M 152.097656 65.964844 " fill-opacity="1" fill-rule="nonzero"/><path fill="#000000" d="M 97.171875 65.964844 C 95.65625 65.964844 94.425781 64.734375 94.425781 63.21875 L 94.425781 56.652344 L 91.289062 61.882812 C 90.296875 63.539062 87.570312 63.539062 86.578125 61.882812 L 83.4375 56.652344 L 83.4375 63.21875 C 83.4375 64.734375 82.207031 65.964844 80.691406 65.964844 C 79.175781 65.964844 77.945312 64.734375 77.945312 63.21875 L 77.945312 46.738281 C 77.945312 45.503906 78.769531 44.421875 79.957031 44.089844 C 81.160156 43.761719 82.414062 44.265625 83.046875 45.324219 L 88.933594 55.132812 L 94.820312 45.324219 C 95.453125 44.265625 96.71875 43.761719 97.910156 44.089844 C 99.101562 44.421875 99.921875 45.503906 99.921875 46.738281 L 99.921875 63.21875 C 99.921875 64.734375 98.691406 65.964844 97.175781 65.964844 Z M 97.171875 65.964844 " fill-opacity="1" fill-rule="nonzero"/><path fill="#000000" d="M 34.007812 65.964844 C 27.949219 65.964844 23.023438 61.035156 23.023438 54.976562 L 23.023438 43.992188 C 23.023438 37.933594 27.949219 33.007812 34.007812 33.007812 C 40.066406 33.007812 44.992188 37.933594 44.992188 43.992188 C 44.992188 45.507812 43.761719 46.738281 42.246094 46.738281 C 40.730469 46.738281 39.5 45.507812 39.5 43.992188 C 39.5 40.964844 37.035156 38.5 34.007812 38.5 C 30.976562 38.5 28.515625 40.964844 28.515625 43.992188 L 28.515625 54.976562 C 28.515625 58.007812 30.976562 60.472656 34.007812 60.472656 C 37.035156 60.472656 39.5 58.007812 39.5 54.976562 C 39.5 53.460938 40.730469 52.230469 42.246094 52.230469 C 43.761719 52.230469 44.992188 53.460938 44.992188 54.976562 C 44.992188 61.035156 40.066406 65.964844 34.007812 65.964844 Z M 34.007812 65.964844 " fill-opacity="1" fill-rule="nonzero"/><path fill="#000000" d="M 61.46875 65.964844 C 55.410156 65.964844 50.484375 61.035156 50.484375 54.976562 C 50.484375 48.917969 55.410156 43.992188 61.46875 43.992188 C 67.527344 43.992188 72.457031 48.917969 72.457031 54.976562 C 72.457031 61.035156 67.527344 65.964844 61.46875 65.964844 Z M 61.46875 49.484375 C 58.441406 49.484375 55.976562 51.949219 55.976562 54.976562 C 55.976562 58.007812 58.441406 60.472656 61.46875 60.472656 C 64.5 60.472656 66.964844 58.007812 66.964844 54.976562 C 66.964844 51.949219 64.5 49.484375 61.46875 49.484375 Z M 61.46875 49.484375 " fill-opacity="1" fill-rule="nonzero"/><path fill="#000000" d="M 113.652344 137.367188 C 107.59375 137.367188 102.664062 132.441406 102.664062 126.382812 C 102.664062 120.324219 107.59375 115.398438 113.652344 115.398438 C 119.710938 115.398438 124.636719 120.324219 124.636719 126.382812 C 124.636719 132.441406 119.710938 137.367188 113.652344 137.367188 Z M 113.652344 120.890625 C 110.621094 120.890625 108.15625 123.355469 108.15625 126.382812 C 108.15625 129.414062 110.621094 131.875 113.652344 131.875 C 116.679688 131.875 119.144531 129.414062 119.144531 126.382812 C 119.144531 123.355469 116.679688 120.890625 113.652344 120.890625 Z M 113.652344 120.890625 " fill-opacity="1" fill-rule="nonzero"/><path fill="#000000" d="M 146.605469 137.367188 C 145.808594 137.367188 145.03125 137.019531 144.496094 136.378906 L 135.621094 125.730469 L 135.621094 134.621094 C 135.621094 136.136719 134.390625 137.367188 132.875 137.367188 C 131.359375 137.367188 130.128906 136.136719 130.128906 134.621094 L 130.128906 118.144531 C 130.128906 116.988281 130.855469 115.957031 131.941406 115.5625 C 133.027344 115.167969 134.242188 115.5 134.984375 116.386719 L 143.859375 127.035156 L 143.859375 118.144531 C 143.859375 116.628906 145.089844 115.398438 146.605469 115.398438 C 148.121094 115.398438 149.351562 116.628906 149.351562 118.144531 L 149.351562 134.621094 C 149.351562 135.777344 148.628906 136.8125 147.539062 137.203125 C 147.234375 137.3125 146.917969 137.367188 146.605469 137.367188 Z M 146.605469 137.367188 " fill-opacity="1" fill-rule="nonzero"/><path fill="#000000" d="M 42.246094 140.113281 C 37.703125 140.113281 34.007812 136.417969 34.007812 131.875 C 34.007812 130.359375 35.238281 129.128906 36.753906 129.128906 C 38.269531 129.128906 39.5 130.359375 39.5 131.875 C 39.5 133.390625 40.734375 134.621094 42.246094 134.621094 C 43.757812 134.621094 44.992188 133.390625 44.992188 131.875 C 44.992188 130.363281 43.757812 129.128906 42.246094 129.128906 C 37.703125 129.128906 34.007812 125.433594 34.007812 120.890625 C 34.007812 116.347656 37.703125 112.652344 42.246094 112.652344 C 46.789062 112.652344 50.484375 116.347656 50.484375 120.890625 C 50.484375 122.40625 49.253906 123.636719 47.738281 123.636719 C 46.222656 123.636719 44.992188 122.40625 44.992188 120.890625 C 44.992188 119.375 43.757812 118.144531 42.246094 118.144531 C 40.734375 118.144531 39.5 119.378906 39.5 120.890625 C 39.5 122.402344 40.734375 123.636719 42.246094 123.636719 C 46.789062 123.636719 50.484375 127.332031 50.484375 131.875 C 50.484375 136.417969 46.789062 140.113281 42.246094 140.113281 Z M 42.246094 140.113281 " fill-opacity="1" fill-rule="nonzero"/><path fill="#000000" d="M 77.949219 137.367188 C 65.835938 137.367188 55.976562 127.511719 55.976562 115.398438 C 55.976562 103.285156 65.835938 93.425781 77.949219 93.425781 C 90.0625 93.425781 99.917969 103.285156 99.917969 115.398438 C 99.917969 127.511719 90.0625 137.367188 77.949219 137.367188 Z M 77.949219 98.917969 C 68.859375 98.917969 61.46875 106.308594 61.46875 115.398438 C 61.46875 124.484375 68.859375 131.875 77.949219 131.875 C 87.035156 131.875 94.425781 124.484375 94.425781 115.398438 C 94.425781 106.308594 87.035156 98.917969 77.949219 98.917969 Z M 77.949219 98.917969 " fill-opacity="1" fill-rule="nonzero"/><path fill="#000000" d="M 72.457031 123.636719 C 71.753906 123.636719 71.050781 123.367188 70.515625 122.832031 C 69.441406 121.757812 69.441406 120.023438 70.515625 118.949219 L 75.203125 114.261719 L 75.203125 104.414062 C 75.203125 102.894531 76.433594 101.667969 77.949219 101.667969 C 79.464844 101.667969 80.695312 102.894531 80.695312 104.414062 L 80.695312 115.398438 C 80.695312 116.125 80.40625 116.824219 79.890625 117.339844 L 74.398438 122.832031 C 73.863281 123.367188 73.160156 123.636719 72.457031 123.636719 Z M 72.457031 123.636719 " fill-opacity="1" fill-rule="nonzero"/><path fill="#000000" d="M 77.949219 120.890625 C 74.917969 120.890625 72.457031 118.425781 72.457031 115.398438 C 72.457031 112.367188 74.917969 109.90625 77.949219 109.90625 C 80.976562 109.90625 83.441406 112.367188 83.441406 115.398438 C 83.441406 118.425781 80.976562 120.890625 77.949219 120.890625 Z M 77.949219 115.394531 Z M 77.949219 115.394531 " fill-opacity="1" fill-rule="nonzero"/><path fill="#000000" d="M 80.695312 90.679688 L 75.203125 90.679688 C 73.6875 90.679688 72.457031 89.449219 72.457031 87.933594 C 72.457031 86.417969 73.6875 85.1875 75.203125 85.1875 L 80.695312 85.1875 C 82.210938 85.1875 83.441406 86.417969 83.441406 87.933594 C 83.441406 89.449219 82.210938 90.679688 80.695312 90.679688 Z M 80.695312 90.679688 " fill-opacity="1" fill-rule="nonzero"/><path fill="#000000" d="M 77.949219 98.917969 C 76.433594 98.917969 75.203125 97.6875 75.203125 96.171875 L 75.203125 87.933594 C 75.203125 86.417969 76.433594 85.1875 77.949219 85.1875 C 79.464844 85.1875 80.695312 86.417969 80.695312 87.933594 L 80.695312 96.171875 C 80.695312 97.6875 79.464844 98.917969 77.949219 98.917969 Z M 77.949219 98.917969 " fill-opacity="1" fill-rule="nonzero"/><path fill="#000000" d="M 160.339844 148.355469 L 23.023438 148.355469 C 18.480469 148.355469 14.78125 144.65625 14.78125 140.113281 L 14.78125 112.652344 C 14.78125 108.109375 18.480469 104.414062 23.023438 104.414062 L 58.722656 104.414062 C 60.238281 104.414062 61.46875 105.644531 61.46875 107.160156 C 61.46875 108.675781 60.238281 109.90625 58.722656 109.90625 L 23.023438 109.90625 C 21.507812 109.90625 20.273438 111.136719 20.273438 112.652344 L 20.273438 140.113281 C 20.273438 141.628906 21.507812 142.859375 23.023438 142.859375 L 160.339844 142.859375 C 161.851562 142.859375 163.085938 141.628906 163.085938 140.113281 L 163.085938 112.652344 C 163.085938 111.136719 161.851562 109.90625 160.339844 109.90625 L 97.171875 109.90625 C 95.65625 109.90625 94.425781 108.675781 94.425781 107.160156 C 94.425781 105.644531 95.65625 104.414062 97.171875 104.414062 L 160.339844 104.414062 C 164.882812 104.414062 168.578125 108.109375 168.578125 112.652344 L 168.578125 140.113281 C 168.578125 144.65625 164.882812 148.355469 160.339844 148.355469 Z M 160.339844 148.355469 " fill-opacity="1" fill-rule="nonzero"/></svg>