<svg xmlns="http://www.w3.org/2000/svg" xmlns:xlink="http://www.w3.org/1999/xlink" width="244" zoomAndPan="magnify" viewBox="0 0 183 181.5" height="242" preserveAspectRatio="xMidYMid meet" version="1.0"><defs><g/><clipPath id="7ced4eba24"><path d="M 0.25 0 L 182.746094 0 L 182.746094 181 L 0.25 181 Z M 0.25 0 " clip-rule="nonzero"/></clipPath></defs><g clip-path="url(#7ced4eba24)"><path fill="#ffffff" d="M 0.25 0 L 182.75 0 L 182.75 181 L 0.25 181 Z M 0.25 0 " fill-opacity="1" fill-rule="nonzero"/><path fill="#000000" d="M 0.25 0 L 182.75 0 L 182.75 181 L 0.25 181 Z M 0.25 0 " fill-opacity="1" fill-rule="nonzero"/></g><g fill="#ffffff" fill-opacity="1"><g transform="translate(40.079762, 97.398337)"><g><path d="M 5.03125 -12.21875 L 5.03125 -9.140625 L 9.984375 -9.140625 L 9.984375 -6.296875 L 5.03125 -6.296875 L 5.03125 -2.96875 L 10.640625 -2.96875 L 10.640625 0 L 1.34375 0 L 1.34375 -15.1875 L 10.640625 -15.1875 L 10.640625 -12.21875 Z M 5.03125 -12.21875 "/></g></g></g><g fill="#ffffff" fill-opacity="1"><g transform="translate(51.774402, 97.398337)"><g><path d="M 16.734375 -12.203125 C 18.234375 -12.203125 19.425781 -11.742188 20.3125 -10.828125 C 21.195312 -9.921875 21.640625 -8.660156 21.640625 -7.046875 L 21.640625 0 L 17.96875 0 L 17.96875 -6.546875 C 17.96875 -7.328125 17.757812 -7.929688 17.34375 -8.359375 C 16.9375 -8.785156 16.375 -9 15.65625 -9 C 14.9375 -9 14.367188 -8.785156 13.953125 -8.359375 C 13.546875 -7.929688 13.34375 -7.328125 13.34375 -6.546875 L 13.34375 0 L 9.671875 0 L 9.671875 -6.546875 C 9.671875 -7.328125 9.460938 -7.929688 9.046875 -8.359375 C 8.640625 -8.785156 8.078125 -9 7.359375 -9 C 6.628906 -9 6.054688 -8.785156 5.640625 -8.359375 C 5.234375 -7.929688 5.03125 -7.328125 5.03125 -6.546875 L 5.03125 0 L 1.34375 0 L 1.34375 -12.0625 L 5.03125 -12.0625 L 5.03125 -10.546875 C 5.40625 -11.054688 5.894531 -11.457031 6.5 -11.75 C 7.113281 -12.050781 7.800781 -12.203125 8.5625 -12.203125 C 9.46875 -12.203125 10.273438 -12.003906 10.984375 -11.609375 C 11.703125 -11.222656 12.265625 -10.671875 12.671875 -9.953125 C 13.085938 -10.609375 13.65625 -11.144531 14.375 -11.5625 C 15.101562 -11.988281 15.890625 -12.203125 16.734375 -12.203125 Z M 16.734375 -12.203125 "/></g></g></g><g fill="#ffffff" fill-opacity="1"><g transform="translate(74.666506, 97.398337)"><g/></g></g><g fill="#ffffff" fill-opacity="1"><g transform="translate(79.249253, 97.398337)"><g><path d="M 10.53125 -7.78125 C 11.40625 -7.59375 12.109375 -7.15625 12.640625 -6.46875 C 13.179688 -5.789062 13.453125 -5.007812 13.453125 -4.125 C 13.453125 -2.863281 13.007812 -1.859375 12.125 -1.109375 C 11.238281 -0.367188 10 0 8.40625 0 L 1.34375 0 L 1.34375 -15.1875 L 8.171875 -15.1875 C 9.710938 -15.1875 10.921875 -14.832031 11.796875 -14.125 C 12.671875 -13.414062 13.109375 -12.457031 13.109375 -11.25 C 13.109375 -10.351562 12.875 -9.609375 12.40625 -9.015625 C 11.9375 -8.421875 11.3125 -8.007812 10.53125 -7.78125 Z M 5.03125 -9.046875 L 7.453125 -9.046875 C 8.066406 -9.046875 8.535156 -9.175781 8.859375 -9.4375 C 9.179688 -9.707031 9.34375 -10.101562 9.34375 -10.625 C 9.34375 -11.132812 9.179688 -11.523438 8.859375 -11.796875 C 8.535156 -12.078125 8.066406 -12.21875 7.453125 -12.21875 L 5.03125 -12.21875 Z M 7.765625 -2.984375 C 8.378906 -2.984375 8.851562 -3.125 9.1875 -3.40625 C 9.53125 -3.6875 9.703125 -4.09375 9.703125 -4.625 C 9.703125 -5.15625 9.523438 -5.570312 9.171875 -5.875 C 8.828125 -6.1875 8.34375 -6.34375 7.71875 -6.34375 L 5.03125 -6.34375 L 5.03125 -2.984375 Z M 7.765625 -2.984375 "/></g></g></g><g fill="#ffffff" fill-opacity="1"><g transform="translate(93.49467, 97.398337)"><g><path d="M 5.03125 -10.0625 C 5.46875 -10.71875 6.007812 -11.238281 6.65625 -11.625 C 7.3125 -12.007812 8.035156 -12.203125 8.828125 -12.203125 L 8.828125 -8.28125 L 7.8125 -8.28125 C 6.882812 -8.28125 6.1875 -8.082031 5.71875 -7.6875 C 5.257812 -7.289062 5.03125 -6.59375 5.03125 -5.59375 L 5.03125 0 L 1.34375 0 L 1.34375 -12.0625 L 5.03125 -12.0625 Z M 5.03125 -10.0625 "/></g></g></g><g fill="#ffffff" fill-opacity="1"><g transform="translate(102.746621, 97.398337)"><g><path d="M 12.71875 -6.234375 C 12.71875 -5.878906 12.695312 -5.515625 12.65625 -5.140625 L 4.28125 -5.140625 C 4.34375 -4.390625 4.582031 -3.816406 5 -3.421875 C 5.425781 -3.023438 5.953125 -2.828125 6.578125 -2.828125 C 7.492188 -2.828125 8.132812 -3.21875 8.5 -4 L 12.4375 -4 C 12.226562 -3.207031 11.859375 -2.492188 11.328125 -1.859375 C 10.804688 -1.222656 10.148438 -0.722656 9.359375 -0.359375 C 8.566406 -0.00390625 7.679688 0.171875 6.703125 0.171875 C 5.523438 0.171875 4.472656 -0.078125 3.546875 -0.578125 C 2.617188 -1.085938 1.894531 -1.8125 1.375 -2.75 C 0.863281 -3.6875 0.609375 -4.78125 0.609375 -6.03125 C 0.609375 -7.289062 0.863281 -8.382812 1.375 -9.3125 C 1.882812 -10.25 2.597656 -10.96875 3.515625 -11.46875 C 4.441406 -11.976562 5.503906 -12.234375 6.703125 -12.234375 C 7.867188 -12.234375 8.90625 -11.988281 9.8125 -11.5 C 10.726562 -11.007812 11.441406 -10.3125 11.953125 -9.40625 C 12.460938 -8.5 12.71875 -7.441406 12.71875 -6.234375 Z M 8.9375 -7.203125 C 8.9375 -7.835938 8.71875 -8.34375 8.28125 -8.71875 C 7.851562 -9.09375 7.3125 -9.28125 6.65625 -9.28125 C 6.039062 -9.28125 5.519531 -9.097656 5.09375 -8.734375 C 4.664062 -8.378906 4.398438 -7.867188 4.296875 -7.203125 Z M 8.9375 -7.203125 "/></g></g></g><g fill="#ffffff" fill-opacity="1"><g transform="translate(116.062523, 97.398337)"><g><path d="M 6.765625 -3.453125 L 9.390625 -12.0625 L 13.328125 -12.0625 L 9.046875 0 L 4.46875 0 L 0.1875 -12.0625 L 4.15625 -12.0625 Z M 6.765625 -3.453125 "/></g></g></g><g fill="#ffffff" fill-opacity="1"><g transform="translate(129.594588, 97.398337)"><g><path d="M 12.71875 -6.234375 C 12.71875 -5.878906 12.695312 -5.515625 12.65625 -5.140625 L 4.28125 -5.140625 C 4.34375 -4.390625 4.582031 -3.816406 5 -3.421875 C 5.425781 -3.023438 5.953125 -2.828125 6.578125 -2.828125 C 7.492188 -2.828125 8.132812 -3.21875 8.5 -4 L 12.4375 -4 C 12.226562 -3.207031 11.859375 -2.492188 11.328125 -1.859375 C 10.804688 -1.222656 10.148438 -0.722656 9.359375 -0.359375 C 8.566406 -0.00390625 7.679688 0.171875 6.703125 0.171875 C 5.523438 0.171875 4.472656 -0.078125 3.546875 -0.578125 C 2.617188 -1.085938 1.894531 -1.8125 1.375 -2.75 C 0.863281 -3.6875 0.609375 -4.78125 0.609375 -6.03125 C 0.609375 -7.289062 0.863281 -8.382812 1.375 -9.3125 C 1.882812 -10.25 2.597656 -10.96875 3.515625 -11.46875 C 4.441406 -11.976562 5.503906 -12.234375 6.703125 -12.234375 C 7.867188 -12.234375 8.90625 -11.988281 9.8125 -11.5 C 10.726562 -11.007812 11.441406 -10.3125 11.953125 -9.40625 C 12.460938 -8.5 12.71875 -7.441406 12.71875 -6.234375 Z M 8.9375 -7.203125 C 8.9375 -7.835938 8.71875 -8.34375 8.28125 -8.71875 C 7.851562 -9.09375 7.3125 -9.28125 6.65625 -9.28125 C 6.039062 -9.28125 5.519531 -9.097656 5.09375 -8.734375 C 4.664062 -8.378906 4.398438 -7.867188 4.296875 -7.203125 Z M 8.9375 -7.203125 "/></g></g></g></svg>